<svg version="1.1" id="Layer_1" xmlns="http://www.w3.org/2000/svg" x="0" y="0" viewBox="0 0 199.3 38.5" style="enable-background:new 0 0 199.3 38.5" xml:space="preserve"><style>.st0{fill:#00b1e9}</style><switch><g><path class="st0" d="M2.3 33.1c-.4-.2-.2-.8.3-.7C8.1 34 18 35.1 23.5 25.8 30.9 13.4 33.9-4.3 60.1 3c.5.1.5.8.1.9-3.6 1.5-12.8 6.6-8.2 16.9 0 0 3.4-11 16.1-7.7.3.1.3.5 0 .7-2.5 1.1-9.5 5.1-6.9 13.3 2.3 7.2 12.7 6.7 16 6.3.5-.1.6.5 0 .8-2.9 1.4-18.4 7.2-24.8-6 0 0-8.4 5.6-12.8-5.8-.2.1-11.8 23.9-37.3 10.7z"/><path class="st0" d="M71.8 30.7c-3.6 0-6.5-2.9-6.5-6.5s2.9-6.5 6.5-6.5 6.5 2.9 6.5 6.5-3 6.5-6.5 6.5zm0-9.1c-1.5 0-2.6 1.2-2.6 2.6s1.2 2.6 2.6 2.6c1.5 0 2.6-1.2 2.6-2.6s-1.2-2.6-2.6-2.6zM87.1 30.7c-3.6 0-6.5-2.9-6.5-6.5s2.9-6.5 6.5-6.5 6.5 2.9 6.5 6.5-3 6.5-6.5 6.5zm0-9.1c-1.5 0-2.6 1.2-2.6 2.6s1.2 2.6 2.6 2.6 2.6-1.2 2.6-2.6-1.2-2.6-2.6-2.6zM149 32.3c-3.6 0-6.5-2.9-6.5-6.5s2.9-6.5 6.5-6.5 6.5 2.9 6.5 6.5-2.9 6.5-6.5 6.5zm0-9.2c-1.5 0-2.6 1.2-2.6 2.6s1.2 2.6 2.6 2.6 2.6-1.2 2.6-2.6-1.2-2.6-2.6-2.6z"/><path class="st0" d="M158.2 16.3c.2-.1.5 0 .4.3-.6 1.6-1.8 5.6-1 9.6.9 4.5 4.4 7.2 7.7 9 .3.1.2.5-.1.6-3.2.2-13-.5-12.7-10.4.1-4.9 2.8-7.9 5.7-9.1z"/><path class="st0" d="M179.8 15.2c.4 0 .5.4.2.6-2.9 1.8-4.9 5.5-5 9.3 0 4 2.6 8.3 6.1 9.8.4.2.3.7-.1.8-2.5.7-8.9 1.3-14.3-3.2-6-5-5-12.4-3.7-15.6.2-.6 1-.4 1.1.2.3 4.4 2.2 8.4 4.5 9.5.1-.6.5-10.3 11.2-11.4z"/><path class="st0" d="M197.6 19.6c0-.3-.5-.3-.5 0-2 9.4-9.2 9.1-9.2 9.1-1.6.1-2.9-.3-3.7-1.1 0 0 4.8-1.1 6.5-1.9.7-.3 1.4-.9 1.6-1.7.2-1-.2-1.7-.6-2.3-.7-1.4-2-2.5-3.4-3.1-1.3-.6-2.8-.7-4.2-.3-3.1.9-5.9 4.2-5 8.4 1.5 7.5 10.7 8.5 15.7 3.8 3-2.9 3.3-7.3 2.8-10.9zm-9.6 3.8-3.7.9c-.3.1-.6-.2-.6-.5.1-.9.6-1.9 1.7-2.2 1.1-.3 2.3 0 2.9 1.1.1.3 0 .6-.3.7zM111.6 27.3C109.9 15.9 97.8 14 93.3 13.9c-.5 0-.8.8-.3 1 2.1 1.1 6 4.8 4.8 10.5-1.8 9-11.2 8.3-14.8 8-.6-.1-.4.4-.3.6 1.6 1.6 19.1 6.5 21.8-6.2 0 0 4.2 3.1.8 8.2-.1.1 0 .3.2.3 2.8-1 6.9-3.7 6.1-9z"/><path class="st0" d="M107.3 14.2c-.4 0-.4.5-.1.6 2.9 1 7.5 2.3 9.4 8.9 1.7 6-1 10.2-4.5 11.9-.2.1-.2.4.1.5 3 .3 12.6.7 16.2-8.4 0 0 3.1 10.7 16.6 7.9.2 0 .2-.3.1-.4-1.8-.9-7.8-4.2-7.1-10.4.5-4.8 4.2-8.1 7.2-9.3.3-.1.2-.6-.1-.6-3.4 0-10.5 1.2-13.4 7.6 0 0-1.6-4.1 1.6-7.5.2-.2.1-.4-.2-.4-1.8.1-7.2.9-9 7.6-.1-.1-1.8-8.3-16.8-8z"/></g></switch></svg>